<?xml version="1.0" encoding="utf-8"?>
<!-- Generator: Adobe Illustrator 22.1.0, SVG Export Plug-In . SVG Version: 6.00 Build 0)  -->
<svg version="1.1" id="Слой_1" xmlns="http://www.w3.org/2000/svg" xmlns:xlink="http://www.w3.org/1999/xlink" x="0px" y="0px"
	 viewBox="0 0 1702 490" style="enable-background:new 0 0 1702 490;" xml:space="preserve">
<style type="text/css">
	.st0{fill:#303030;}
	.st1{fill:#FFFFFF;}
</style>
<g>
	<path class="st0" d="M687-1162.7c-14.8-9.6-31.6-8.3-48.3-7.2c0.1-1.4,0.1-2.7,0.2-4.1c19.8,0,39.7,0,59.5,0c0-1,0-2-0.1-3.1
		c-24.7-3.2-50,2.6-74.6-2.8c0.1-1.4,0.1-2.8,0.2-4.2c11.7,0,24.3,2.8,34.9-0.6c21-6.8,41.8-4.4,62.8-3.8c29,0.7,58,2.3,87,3.4
		c3,0.1,6.1,0,9.4-1.6c-1.2-0.6-2.5-1.3-3.7-1.9c0-0.5,0-1,0-1.5c15.1,0,30.2-0.4,45.3,0.1c14.7,0.5,29.3,2.8,43.9,2.5
		c14.7-0.3,29.3-2.8,44.8-4.5c0.7-7.8,0.8-16.1,2.4-24.1c1-5.2,4.4-9.9,6.5-14.9c1-2.5,1.6-5.2,2-7.9c1.7-10.9,3.2-21.7,5-32.6
		c0.3-1.5,2-2.8,3.8-5.2c3.4,5.8,10.3,8.1,9,15.7c-1.1,5.9-2.2,11.9-3.3,17.6c4.3,1.6,7.3,2.7,10.8,4c1-2.6,1.8-4.8,3.4-9.1
		c1.3,4.9,2.1,7.9,3.1,11.8c2.4,0,5,0,8.1,0c1.4,14.9,2.7,29,4.2,44.4c19.2,0.7,38.9-6.7,57.9,0.7c0,0.9,0,1.9,0,2.8
		c-15.8,0-31.6,0-47.3,0c0,0.9,0,1.8,0,2.7c26.2,4.7,54.2-4.1,81.8,11.2c-8.6,0-14.4,0-22.6,0c12.2,6.4,22,8.4,33.9,7.7
		c7.9-0.5,5.8,6.9,15.2,11.4c-21.1,0-30.7,0-50.7,0c0,1.1,0,2.3,0,3.4c13.3,0,26.6,0,39.9,0c0,0.8,0.1,1.6,0.1,2.4
		c-17.6,1.4-35.2,2.8-52.8,4.2c0,0.3,0.1,0.6,0.1,1c13.8,0,27.7,0,41.5,0c0.1,0.4,0.2,0.9,0.3,1.3c-9,1.4-18.1,3.8-27.1,4
		c-21.2,0.4-42.4-0.1-63.7-0.4c-2.1,0-4.5-1.9-6.2-1.3c-2.5,0.9-6.7,3.8-6.5,5c2.2,9.3,2.8,16.8-6.2,24c-3.7,3-2.4,12-3.7,18.2
		c-1.4,7-3.2,14-6.3,20.9c-0.6-2.3-1.2-4.5-1.6-6c-1.5,1.1-3.1,2.5-4.9,3.6c-1.7,1.1-3.6,1.9-6,3.1c0-4.2,0-8.2,0-13.1
		c-4.7-1.2-9.3-2.4-14.1-3.7c0-7.2,0-15.3,0-24.2c-1.6,8.6-3,16.3-4.4,24c-0.4,0-0.9,0-1.3,0c-0.1-2.2-0.3-4.5-0.4-7.8
		c-2.3,1.8-4,3.1-6,4.6c-6.8-15.3-1.2-30-0.1-46.3c-14.3,0-27.9,0.7-41.4-0.1c-30.4-1.8-60.8-4.5-91.2-6.4c-8.7-0.5-17.6,1-26.3,0.4
		c-7.3-0.5-14.5-2.8-21.8-3.7c-2.9-0.4-6.1,0.3-9.1,1c-10.5,2.4-20.9,5.1-31.3,7.6c-0.2-0.8-0.4-1.7-0.6-2.5
		c4.9-0.9,9.7-1.9,14.6-2.8c-9.6-9.3-20.4-3.8-30.8-3.9c-31.6-0.3-63.3-1.2-94.9-1.8c-7.8-0.1-2.3,0-10.1-1.4
		C632.6-1157.4,653.3-1156.6,687-1162.7z"/>
	<path class="st0" d="M649-1033c-15.3,0-30.5,0-45.8,0c0-1.1,0-2.3,0-3.4c10.8-0.6,21.5-1.2,32.3-1.8c0-1,0-1.9-0.1-2.9
		c-13.6,0.7-27.3,1.3-40.9,2c-0.1-0.8-0.2-1.6-0.3-2.5c9.7-1.2,19.4-3.2,29.1-3.4c24.1-0.6,48.2-0.6,72.3-0.2
		c9.2,0.2,11.9-2.7,13.1-12.1c1.9-15.3,6.5-30.3,10.4-47c52.9,2.3,52.9,2.3,39.8,58.8c9.9,0,18.6-0.3,27.3,0.1
		c14.8,0.6,30.2,4.7,44.3,1.8c24-4.9,47.5-1.3,71.2-1.6c36.7-0.5,73.5-0.1,110.3,0.5c5.8,0.1,11.4,4.2,17.3,4.6
		c30.8,1.8,61.6,3,93,6.1c-8.8,1.4-17.5,3.4-26.4,4.2c-18.9,1.8-37.8,2.8-56.7,4.6c-6.5,0.6-12.9,2.2-19.2,3.8c-2.6,0.7-6.5,2-7,3.8
		c-2.9,10.5-11,6.2-17.2,6.3c-14.6,0.4-29.3,0.1-43.9,0.1c0,1.2-0.1,2.4-0.1,3.6c7.1,0,14.3-0.3,21.4,0.1c8.4,0.4,16.7,1.6,25.1,1.7
		c2.6,0.1,5.3-3.1,7.8-2.9c9.1,0.7,18.1,2.2,27.1,3.4c0,1.3,0,2.5,0,3.8c-19.8,0.9-39.6,2.2-59.4,2.5c-17,0.3-34-0.3-50.9-0.9
		c-10.5-0.4-21-2.5-31.4-2.4c-12.7,0.1-25.4,2.3-38.2,2.5c-19.6,0.2-39.3-1.4-58.9-0.7c-12.6,0.5-25,3.7-38.9,5.9
		c-0.9,11.5-1.9,23.7-2.7,35.9c-0.3,4.4,0.4,8.6-6.2,9.7c-1.9,0.3-2.6,6.5-4.4,9.8c-1.6,3-3.2,6.5-5.9,8.4
		c-9,6.6-22.5,8.9-20.2,24.9c-3.3-2.7-1.9-8.1-5.7-11c0,0.2-2.5-6.3-3.6-8.2c-4.6-8-5.1-6.1-7.8-12.8c-3-7.6-2.8-16.6-3-24.9
		c-0.2-10.1,0.8-20.1,1.4-31.1c-6.9-0.7-13.3-1.3-21.2-2c2.2-1.7,3.6-2.7,6.8-5.2c-7.4-0.5-13.2-1-19-1.2
		c-7.3-0.2-14.8-1.4-21.8-0.1c-15.6,2.9-26.2-5.9-36.9-14.4c-1.2-1-0.7-4.1-1-6.2c-6-1.4-0.7-3-7-4.5"/>
	<path class="st0" d="M682-854.7c-14.8-9.6-31.6-8.3-48.3-7.2c0.1-1.4,0.1-2.7,0.2-4.1c19.8,0,39.7,0,59.5,0c0-1,0-2-0.1-3.1
		c-24.7-3.2-50,2.6-74.6-2.8c0.1-1.4,0.1-2.8,0.2-4.2c11.7,0,24.3,2.8,34.9-0.6c21-6.8,41.8-4.4,62.8-3.8c29,0.7,58,2.3,87,3.4
		c3,0.1,6.1,0,9.4-1.6c-1.2-0.6-2.5-1.3-3.7-1.9c0-0.5,0-1,0-1.5c15.1,0,30.2-0.4,45.3,0.1c14.7,0.5,29.3,2.8,43.9,2.5
		c14.7-0.3,29.3-2.8,44.8-4.5c0.7-7.8,0.8-16.1,2.4-24.1c1-5.2,4.4-9.9,6.5-14.9c1-2.5,1.6-5.2,2-7.9c1.7-10.9,3.2-21.7,5-32.6
		c0.3-1.5,2-2.8,3.8-5.2c3.4,5.8,10.3,8.1,9,15.7c-1.1,5.9-2.2,11.9-3.3,17.6c4.3,1.6,7.3,2.7,10.8,4c1-2.6,1.8-4.8,3.4-9.1
		c1.3,4.9,2.1,7.9,3.1,11.8c2.4,0,5,0,8.1,0c1.4,14.9,2.7,29,4.2,44.4c19.2,0.7,38.9-6.7,57.9,0.7c0,0.9,0,1.9,0,2.8
		c-15.8,0-31.6,0-47.3,0c0,0.9,0,1.8,0,2.7c26.2,4.7,54.2-4.1,81.8,11.2c-8.6,0-14.4,0-22.6,0c12.2,6.4,22,8.4,33.9,7.7
		c7.9-0.5,16.3,6.9,25.7,11.4c-21.1,0-41.1,0-61.1,0c0,1.1,0,2.3,0,3.4c13.3,0,26.6,0,39.9,0c0,0.8,0.1,1.6,0.1,2.4
		c-17.6,1.4-35.2,2.8-52.8,4.2c0,0.3,0.1,0.6,0.1,1c13.8,0,27.7,0,41.5,0c0.1,0.4,0.2,0.9,0.3,1.3c-9,1.4-18.1,3.8-27.1,4
		c-21.2,0.4-42.4-0.1-63.7-0.4c-2.1,0-4.5-1.9-6.2-1.3c-2.5,0.9-6.7,3.8-6.5,5c2.2,9.3,2.8,16.8-6.2,24c-3.7,3-2.4,12-3.7,18.2
		c-1.4,7-3.2,14-6.3,20.9c-0.6-2.3-1.2-4.5-1.6-6c-1.5,1.1-3.1,2.5-4.9,3.6c-1.7,1.1-3.6,1.9-6,3.1c0-4.2,0-8.2,0-13.1
		c-4.7-1.2-9.3-2.4-14.1-3.7c0-7.2,0-15.3,0-24.2c-1.6,8.6-3,16.3-4.4,24c-0.4,0-0.9,0-1.3,0c-0.1-2.2-0.3-4.5-0.4-7.8
		c-2.3,1.8-4,3.1-6,4.6c-6.8-15.3-1.2-30-0.1-46.3c-14.3,0-27.9,0.7-41.4-0.1c-30.4-1.8-60.8-4.5-91.2-6.4c-8.7-0.5-17.6,1-26.3,0.4
		c-7.3-0.5-14.5-2.8-21.8-3.7c-2.9-0.4-6.1,0.3-9.1,1c-10.5,2.4-20.9,5.1-31.3,7.6c-0.2-0.8-0.4-1.7-0.6-2.5
		c4.9-0.9,9.7-1.9,14.6-2.8c-9.6-9.3-20.4-3.8-30.8-3.9c-31.6-0.3-63.3-1.2-94.9-1.8c-7.8-0.1,0.7,0-7.1-1.4
		C630.6-849.4,648.3-848.6,682-854.7z"/>
</g>
<path class="st1" d="M262.8,185.5H46.1c-8.7,0-16.1,8.6-17.2,20.1L11.6,393.3c-1.3,13.6,6.8,25.7,17.2,25.7h216.7
	c8.7,0,16.1-8.6,17.2-20.1l17.3-187.6C281.2,197.6,273.1,185.5,262.8,185.5z M232.3,352.8l-1.6,13.3c-0.2,1.6-1.7,2.9-3.3,2.9H92.8
	L90,391.5c-0.2,1.8-1.8,3.2-3.6,3.2H73.7c-1.8,0-3.1-1.4-2.8-3.2l2.7-22.3H47.3c-1.6,0-2.8-1.3-2.6-2.9l1.6-13.3
	c0.2-1.6,1.7-2.9,3.3-2.9h26.2l2.7-22.2c0.2-1.8,1.8-3.2,3.6-3.2H95c1.8,0,3.1,1.4,2.8,3.2l-2.7,22.2h134.6
	C231.3,349.9,232.5,351.2,232.3,352.8z M238.4,295.7l-1.6,13.3c-0.2,1.6-1.7,2.9-3.3,2.9h-26.2l-2.7,22.2c-0.2,1.8-1.8,3.2-3.6,3.2
	h-12.8c-1.8,0-3.1-1.4-2.8-3.2l2.7-22.2H53.4c-1.6,0-2.8-1.3-2.6-2.9l1.6-13.3c0.2-1.6,1.7-2.9,3.3-2.9h134.6l2.7-22.3
	c0.2-1.8,1.8-3.2,3.6-3.2h12.8c1.8,0,3.1,1.4,2.8,3.2l-2.7,22.3h26.2C237.4,292.7,238.6,294,238.4,295.7z M246.8,238.2l-1.6,13.3
	c-0.2,1.6-1.7,2.9-3.3,2.9H107.3l-2.7,22.3c-0.2,1.8-1.8,3.2-3.6,3.2H88.2c-1.8,0-3.1-1.4-2.8-3.2l2.7-22.3H61.8
	c-1.6,0-2.8-1.3-2.6-2.9l1.6-13.3c0.2-1.6,1.7-2.9,3.3-2.9h26.2l2.7-22.2c0.2-1.8,1.8-3.2,3.6-3.2h12.8c1.8,0,3.1,1.4,2.8,3.2
	l-2.7,22.2h134.6C245.8,235.2,247,236.5,246.8,238.2z"/>
<g>
	<path class="st1" d="M591.8,274.8c-1.8,16.6-4.3,33.3-4.6,50c-0.5,19.5,9.9,31.9,26.5,34.7c20.2,3.4,34.6-4.7,41.4-23.6
		c1.7-4.6,2.9-9.5,3.6-14.4c3.1-23.4,6-46.8,8.7-70.2c2.5-21.9,4.6-41.6,6.8-63.5c25.2,0,50.4,0,75.5,0c-2.6,24.6-4.8,46.9-7.8,71.5
		c-3.3,27.2-5.5,54.6-11.3,81.3c-9.5,43.4-34.8,69.6-79.2,78.4c-5.5,1.1-9.1,2.3-18.3,2.3c-9.9,0-22.1,0-32,0
		c-2.2,0-12.7-1.8-16-2.3c-56-7.5-81-49.5-73.8-105.3c0,0,14.3-125.8,14.3-125.8c25.9,0,51.9,0,77.9,0"/>
	<path class="st1" d="M1241.6,187.7c20.8,0,20.6,0,59.5,0c3.2,0,6.3,4.7,8.4,7.7c21.6,30.5,42.8,61.1,64.2,91.8
		c1.7,2.5,3.6,4.8,5.4,7.2c0.9,0,1.9,0,2.8,0.1c4.1-35,8.9-71.2,13-106.8c24.5,0,47.2,0,73.2,0c-8.7,77-16.4,155.4-25.1,233.4
		c-20.6,0-41.2,0-61.8,0c-2.4,0-4.7-4.9-6.6-7.5c-20.4-28.9-40.7-58-61-87c-2.8-4-5.8-7.9-8.7-11.8c-0.9,0-1.9,0-2.8,0.1
		c-4,34.7-8.3,70.8-12.4,106.2c-24.5,0-49.8,0-75.5,0C1222.8,344.2,1232.8,265.6,1241.6,187.7z"/>
	<path class="st1" d="M1598.7,421.1c-26,0-51.8,0-77.8,0c6.3-56.7,14-113.9,20.4-171.3c-22.2,0-43.7,0-67.6,0
		c2.3-21.1,3.8-41.9,6-62.1c70.7,0,141,0,212.9,0c-2.2,20-4.3,40.8-6.5,61.3c-23,0-44.6,0-67.8,0
		C1611.6,306.2,1605.2,363.7,1598.7,421.1z"/>
	<path class="st1" d="M901.9,269.9c3.2-26.7,6.9-54.8,10.2-82.2c25.1,0,48.8,0,75.5,0c-8.7,76.9-16.5,156.2-25.2,233.4
		c-25.7,0-52.1,0-77.8,0c3.1-28.2,7-57.4,10.2-86.4c-24.7,0-48.4,0-73.4,0c-3.3,28.2-6.6,57.6-9.9,86.4c-25.4,0-51.5,0-77.8,0
		c8.7-77.1,18.8-156.2,27.5-233.4c25.5,0,51.7,0,77.8,0c-2.9,26.9-7.3,54.8-10.2,82.2C853.5,269.9,877,269.9,901.9,269.9z"/>
	<path class="st1" d="M386.3,373.3c-6.9-10.5-13.7-13.9-24.7-11.7c-2.1,0.4-3.7,2.2-4,4.4c-0.9,8.2-1.7,16.7-2.8,25.1
		c-1.1,9.4-2.3,20-3.6,30h-77.8c8.7-77,18.7-156,27.5-233.4c13.7,0,8.1,0,11.4,0c31.6,0,62.5-0.2,94.1,0.9
		c15.4,0.5,31.3,2.7,45.9,7.4c30.9,9.9,50,31.6,53.7,64.4c4,35-7.1,63.9-38,83.2c-4.8,3-6.3,1.9-12.7,5.3
		c14.6,22.7,24.9,48.5,40.1,72.2c-16.5,0-31.2,0.1-45.8,0c-11-0.1-16,0-32,0 M364.4,302.4c15.2,0,28.5,0.9,41.6-0.2
		c14.6-1.3,23.5-12.6,23.6-27.4c0.1-14.9-7.8-25.8-22-27.4c-11.9-1.3-24.1-0.3-37-0.3C368.6,265.5,366.6,283.1,364.4,302.4z"/>
	<path class="st1" d="M1070.1,274.8c-1.8,16.6-4.3,33.3-4.6,50c-0.5,19.5,9.9,31.9,26.5,34.7c20.2,3.4,34.6-4.7,41.4-23.6
		c1.7-4.6,2.9-9.5,3.6-14.4c3.1-23.4,6-46.8,8.7-70.2c2.5-21.9,4.6-41.6,6.8-63.5c25.2,0,50.4,0,75.5,0c-2.6,24.6-4.8,46.9-7.8,71.5
		c-3.3,27.2-5.5,54.6-11.3,81.3c-9.5,43.4-34.8,69.6-79.2,78.4c-5.5,1.1-9.1,2.3-18.3,2.3c-9.9,0-22.1,0-32,0
		c-2.2,0-12.7-1.8-16-2.3c-56-7.5-81-49.5-73.8-105.3c0,0,14.3-125.8,14.3-125.8c25.9,0,51.9,0,77.9,0"/>
</g>
<g>
	<path class="st1" d="M54.2,131.6c-6.2-1.8-11.1-4.1-14.8-7l6.6-14.5c3.6,2.6,7.8,4.7,12.8,6.3c4.9,1.6,9.9,2.4,14.8,2.4
		c5.5,0,9.5-0.8,12.2-2.4c2.6-1.6,3.9-3.8,3.9-6.5c0-2-0.8-3.6-2.3-4.9s-3.5-2.4-6-3.2c-2.4-0.8-5.7-1.7-9.8-2.6
		c-6.4-1.5-11.6-3-15.6-4.5c-4.1-1.5-7.5-3.9-10.4-7.3c-2.9-3.3-4.4-7.8-4.4-13.3c0-4.8,1.3-9.2,3.9-13.2s6.6-7.1,11.9-9.4
		c5.3-2.3,11.7-3.5,19.4-3.5c5.3,0,10.5,0.6,15.6,1.9c5.1,1.3,9.5,3.1,13.3,5.5l-6,14.7c-7.7-4.4-15.4-6.6-23.1-6.6
		c-5.4,0-9.4,0.9-12,2.6c-2.6,1.7-3.9,4.1-3.9,6.9s1.5,5,4.5,6.4c3,1.4,7.5,2.8,13.6,4.1c6.4,1.5,11.6,3,15.6,4.5
		c4.1,1.5,7.5,3.9,10.4,7.2c2.9,3.3,4.4,7.7,4.4,13.2c0,4.8-1.3,9.1-4,13.1c-2.7,3.9-6.7,7.1-12,9.4c-5.3,2.3-11.8,3.5-19.4,3.5
		C66.8,134.3,60.4,133.4,54.2,131.6z"/>
	<path class="st1" d="M186.1,53.1c5.4,2.5,9.6,6,12.6,10.5c2.9,4.5,4.4,9.9,4.4,16.1c0,6.1-1.5,11.5-4.4,16
		c-2.9,4.6-7.1,8.1-12.6,10.5c-5.4,2.4-11.9,3.6-19.2,3.6H150v23h-19.3V49.4h36.1C174.2,49.4,180.6,50.6,186.1,53.1z M179,90.3
		c3-2.5,4.5-6.1,4.5-10.7c0-4.7-1.5-8.3-4.5-10.8c-3-2.5-7.4-3.8-13.2-3.8H150v29h15.7C171.5,94.1,175.9,92.9,179,90.3z"/>
	<path class="st1" d="M243.6,128.7c-7-3.7-12.4-8.9-16.3-15.4c-3.9-6.6-5.9-13.9-5.9-22.1c0-8.2,2-15.6,5.9-22.1
		c3.9-6.6,9.4-11.7,16.3-15.4c7-3.7,14.8-5.6,23.4-5.6c8.7,0,16.4,1.9,23.4,5.6c6.9,3.7,12.4,8.9,16.3,15.4c4,6.6,6,13.9,6,22.1
		c0,8.2-2,15.6-6,22.1c-4,6.6-9.4,11.7-16.3,15.4c-6.9,3.7-14.7,5.6-23.4,5.6C258.4,134.3,250.6,132.4,243.6,128.7z M280.4,114.4
		c4-2.3,7.1-5.4,9.4-9.5c2.3-4.1,3.4-8.7,3.4-13.8c0-5.2-1.1-9.8-3.4-13.8c-2.3-4.1-5.4-7.2-9.4-9.5c-4-2.3-8.4-3.4-13.3-3.4
		c-4.9,0-9.4,1.1-13.3,3.4c-4,2.3-7.1,5.4-9.4,9.5c-2.3,4.1-3.4,8.7-3.4,13.8c0,5.2,1.1,9.8,3.4,13.8c2.3,4.1,5.4,7.2,9.4,9.5
		c4,2.3,8.4,3.4,13.3,3.4C272,117.8,276.4,116.7,280.4,114.4z"/>
	<path class="st1" d="M412.5,49.4v83.4h-15.9L355,82.2v50.7h-19.1V49.4h16l41.5,50.7V49.4H412.5z"/>
	<path class="st1" d="M449.2,131.6c-6.2-1.8-11.1-4.1-14.8-7l6.6-14.5c3.6,2.6,7.8,4.7,12.8,6.3c4.9,1.6,9.9,2.4,14.8,2.4
		c5.5,0,9.5-0.8,12.2-2.4c2.6-1.6,3.9-3.8,3.9-6.5c0-2-0.8-3.6-2.3-4.9s-3.5-2.4-6-3.2c-2.4-0.8-5.7-1.7-9.8-2.6
		c-6.4-1.5-11.6-3-15.6-4.5c-4.1-1.5-7.5-3.9-10.4-7.3c-2.9-3.3-4.4-7.8-4.4-13.3c0-4.8,1.3-9.2,3.9-13.2s6.6-7.1,11.9-9.4
		c5.3-2.3,11.7-3.5,19.4-3.5c5.3,0,10.5,0.6,15.6,1.9c5.1,1.3,9.5,3.1,13.3,5.5l-6,14.7c-7.7-4.4-15.4-6.6-23.1-6.6
		c-5.4,0-9.4,0.9-12,2.6c-2.6,1.7-3.9,4.1-3.9,6.9s1.5,5,4.5,6.4c3,1.4,7.5,2.8,13.6,4.1c6.4,1.5,11.6,3,15.6,4.5
		c4.1,1.5,7.5,3.9,10.4,7.2c2.9,3.3,4.4,7.7,4.4,13.2c0,4.8-1.3,9.1-4,13.1c-2.7,3.9-6.7,7.1-12,9.4c-5.3,2.3-11.8,3.5-19.4,3.5
		C461.8,134.3,455.4,133.4,449.2,131.6z"/>
	<path class="st1" d="M542.7,128.7c-7-3.7-12.4-8.9-16.3-15.4c-3.9-6.6-5.9-13.9-5.9-22.1c0-8.2,2-15.6,5.9-22.1
		c3.9-6.6,9.4-11.7,16.3-15.4c7-3.7,14.8-5.6,23.4-5.6c8.7,0,16.4,1.9,23.4,5.6c6.9,3.7,12.4,8.9,16.3,15.4c4,6.6,6,13.9,6,22.1
		c0,8.2-2,15.6-6,22.1c-4,6.6-9.4,11.7-16.3,15.4c-6.9,3.7-14.7,5.6-23.4,5.6C557.4,134.3,549.6,132.4,542.7,128.7z M579.4,114.4
		c4-2.3,7.1-5.4,9.4-9.5c2.3-4.1,3.4-8.7,3.4-13.8c0-5.2-1.1-9.8-3.4-13.8c-2.3-4.1-5.4-7.2-9.4-9.5c-4-2.3-8.4-3.4-13.3-3.4
		c-4.9,0-9.4,1.1-13.3,3.4c-4,2.3-7.1,5.4-9.4,9.5c-2.3,4.1-3.4,8.7-3.4,13.8c0,5.2,1.1,9.8,3.4,13.8c2.3,4.1,5.4,7.2,9.4,9.5
		c4,2.3,8.4,3.4,13.3,3.4C571,117.8,575.5,116.7,579.4,114.4z"/>
	<path class="st1" d="M688.1,132.8L672,109.6h-1h-16.8v23.2H635V49.4h36.1c7.4,0,13.8,1.2,19.2,3.7c5.4,2.5,9.6,6,12.6,10.5
		c2.9,4.5,4.4,9.9,4.4,16.1s-1.5,11.5-4.5,16c-3,4.5-7.2,7.9-12.7,10.3l18.7,26.8H688.1z M683.2,68.9c-3-2.5-7.4-3.8-13.2-3.8h-15.7
		v29.1H670c5.8,0,10.2-1.3,13.2-3.8c3-2.5,4.5-6.1,4.5-10.7C687.8,75,686.3,71.4,683.2,68.9z"/>
	<path class="st1" d="M795.9,117.3v15.5h-64.6V49.4h63.1v15.5h-43.9V83h38.7v15h-38.7v19.3H795.9z"/>
	<path class="st1" d="M820,49.4h37.9c9.1,0,17.1,1.7,24,5.2c7,3.5,12.4,8.3,16.2,14.6c3.9,6.3,5.8,13.6,5.8,21.9s-1.9,15.7-5.8,21.9
		c-3.9,6.3-9.3,11.1-16.2,14.6c-7,3.5-15,5.2-24,5.2H820V49.4z M856.9,117c8.3,0,15-2.3,20-7c5-4.6,7.4-10.9,7.4-18.9
		c0-7.9-2.5-14.2-7.4-18.9c-5-4.6-11.6-7-20-7h-17.6V117H856.9z"/>
	<path class="st1" d="M1042,97c2.7,3.5,4.1,7.9,4.1,13.1c0,7.3-2.8,12.9-8.5,16.9c-5.7,3.9-14,5.9-24.9,5.9h-43.1V49.4h40.8
		c10.2,0,18,1.9,23.4,5.8c5.4,3.9,8.2,9.2,8.2,15.9c0,4.1-1,7.7-2.9,10.8c-1.9,3.2-4.7,5.7-8.2,7.5C1035.6,91,1039.3,93.5,1042,97z
		 M988.7,63.9v19.7h19.2c4.8,0,8.4-0.8,10.8-2.5c2.5-1.7,3.7-4.1,3.7-7.4c0-3.3-1.2-5.7-3.7-7.3c-2.5-1.6-6.1-2.4-10.8-2.4H988.7z
		 M1022.7,115.8c2.6-1.7,3.9-4.3,3.9-7.7c0-6.9-5.1-10.4-15.4-10.4h-22.5v20.6h22.5C1016.3,118.3,1020.2,117.5,1022.7,115.8z"/>
	<path class="st1" d="M1107.7,103.3v29.6h-19.3V103l-32.3-53.6h20.5l22.3,37.1l22.3-37.1h19L1107.7,103.3z"/>
</g>
</svg>
