<svg  viewBox="0 0 425 425.65119" xmlns="http://www.w3.org/2000/svg"><path d="m224.359375 111.265625c-4.253906-4.253906-11.152344-4.253906-15.40625 0l-165.796875 165.792969 105.761719 105.757812 165.792969-165.792968c4.25-4.253907 4.25-11.152344 0-15.410157zm0 0"/><path d="m.324219 319.894531 32.933593-32.933593 105.757813 105.757812-32.933594 32.933594zm0 0"/><path d="m302.125 55.472656-6.261719 6.261719 68.378907 68.375 6.261718-6.257813c11.984375-12.019531 21.140625-26.554687 26.804688-42.550781l28.667968-81.300781-81.300781 28.664062c-16 5.667969-30.535156 14.824219-42.550781 26.808594zm0 0"/><path d="m245.246094 112.351562 40.71875-40.71875 68.378906 68.375-40.71875 40.722657zm0 0"/></svg>