<svg xmlns="http://www.w3.org/2000/svg" xmlns:xlink="http://www.w3.org/1999/xlink" id="Capa_1" width="95.549px" height="95.549px" x="0px" y="0px" style="enable-background:new 0 0 95.549 95.549" version="1.1" viewBox="0 0 95.549 95.549" xml:space="preserve">
  <g fill="#ccc">
    <path d="M88.543,17.948c-3.02,0-5.591,1.924-6.573,4.607l-13.799,1.777c-1.286-1.54-3.218-2.522-5.376-2.522
		c-3.861,0-7.006,3.144-7.006,7.006c0,1.562,0.521,3.001,1.389,4.168L46.985,55.913c-0.655,0.072-1.283,0.237-1.872,0.479
		l-8.328-8.042c0.117-0.507,0.185-1.031,0.185-1.573c0-3.862-3.144-7.005-7.006-7.005s-7.005,3.143-7.005,7.005
		c0,0.712,0.108,1.399,0.307,2.048L8.958,63.872c-0.621-0.182-1.274-0.283-1.952-0.283C3.144,63.588,0,66.733,0,70.594
		c0,3.863,3.144,7.007,7.006,7.007c3.862,0,7.005-3.144,7.005-7.007c0-0.801-0.142-1.567-0.391-2.284l14.152-14.884
		c0.69,0.229,1.426,0.356,2.191,0.356c0.934,0,1.824-0.188,2.64-0.521l8.344,8.057c-0.113,0.5-0.179,1.018-0.179,1.551
		c0,3.862,3.144,7.006,7.006,7.006s7.005-3.144,7.005-7.006c0-1.783-0.676-3.408-1.777-4.646l9.962-22.41
		c3.154-0.076,5.792-2.243,6.585-5.167l13.241-1.705c1.267,1.821,3.371,3.019,5.753,3.019c3.861,0,7.006-3.143,7.006-7.005
		C95.549,21.093,92.404,17.948,88.543,17.948z"/>
  </g>
</svg>
